<svg width="75" height="75" viewBox="0 0 75 75" fill="none" xmlns="http://www.w3.org/2000/svg">
<g clip-path="url(#clip0_279_30)">
<path d="M37.5 0C16.7906 0 0 16.7906 0 37.5C0 58.2094 16.7906 75 37.5 75C58.2094 75 75 58.2094 75 37.5C75 16.7906 58.2094 0 37.5 0ZM57.3781 49.8969L51.5406 49.9781C51.5406 49.9781 50.2812 50.225 48.6344 49.0875C46.45 47.5875 44.3906 43.6844 42.7844 44.1906C41.1562 44.7094 41.2063 48.2219 41.2063 48.2219C41.2063 48.2219 41.2187 48.8406 40.8469 49.2437C40.4437 49.6781 39.6531 49.6344 39.6531 49.6344H37.0375C37.0375 49.6344 31.2687 50.1125 26.1844 44.8125C20.6469 39.0344 15.7531 27.6313 15.7531 27.6313C15.7531 27.6313 15.4656 26.9125 15.7719 26.5438C16.1187 26.1375 17.0531 26.125 17.0531 26.125L23.3031 26.0938C23.3031 26.0938 23.8906 26.1969 24.3156 26.5094C24.6625 26.7656 24.8594 27.2469 24.8594 27.2469C24.8594 27.2469 25.8687 29.8062 27.2094 32.125C29.8219 36.6437 31.0344 37.6344 31.9219 37.15C33.2156 36.4437 32.8281 30.7625 32.8281 30.7625C32.8281 30.7625 32.8531 28.7 32.1781 27.7813C31.6531 27.0656 30.6656 26.8531 30.2344 26.8C29.8813 26.7531 30.4563 25.9344 31.2063 25.5656C32.3313 25.0156 34.3187 24.9844 36.6656 25.0062C38.4937 25.025 39.0219 25.1375 39.7344 25.3125C41.8906 25.8344 41.1594 27.8469 41.1594 32.675C41.1594 34.2219 40.8812 36.3969 41.9937 37.1125C42.475 37.4219 43.6469 37.1594 46.5688 32.1781C47.9594 29.8156 49 27.0406 49 27.0406C49 27.0406 49.2281 26.5469 49.5812 26.3344C49.9437 26.1156 50.4313 26.1844 50.4313 26.1844L57.0094 26.1438C57.0094 26.1438 58.9844 25.9062 59.3063 26.8031C59.6438 27.7406 58.5687 29.9313 55.8812 33.5156C51.4688 39.4031 50.9781 38.8563 54.6438 42.2625C58.1438 45.5156 58.8656 47.0969 58.9875 47.2969C60.4344 49.7063 57.3781 49.8969 57.3781 49.8969Z" fill="white"/>
</g>
<defs>
<clipPath id="clip0_279_30">
<rect width="75" height="75" fill="white"/>
</clipPath>
</defs>
</svg>
