<svg width="50" height="50" viewBox="0 0 50 50" fill="none" xmlns="http://www.w3.org/2000/svg">
<path d="M49.1952 43.3951L43.3843 49.1952C42.3238 50.2665 40.5924 50.2665 39.5212 49.1952L24.9993 34.6842L10.4883 49.1952C9.41702 50.2665 7.67485 50.2665 6.61437 49.1952L0.803465 43.3951C-0.267822 42.3238 -0.267822 40.5924 0.803465 39.5212L15.3145 24.9993L0.803465 10.4883C-0.25699 9.40622 -0.25699 7.66402 0.803465 6.61437L6.61437 0.803465C7.67483 -0.267822 9.41702 -0.267822 10.4883 0.803465L24.9993 15.3253L39.5212 0.803465C40.5924 -0.267822 42.3346 -0.267822 43.3843 0.803465L49.1952 6.60354C50.2665 7.67483 50.2665 9.41702 49.206 10.4883L34.6842 24.9993L49.1952 39.5211C50.2665 40.5924 50.2665 42.3238 49.1952 43.3951Z" fill="black"/>
</svg>
