<svg width="50" height="50" viewBox="0 0 50 50" fill="none" xmlns="http://www.w3.org/2000/svg">
<path d="M46.0526 41.1765C47.0664 41.177 48.041 41.6135 48.7747 42.3953C49.5084 43.1772 49.9448 44.2445 49.9935 45.3762C50.0422 46.5079 49.6995 47.6172 49.0364 48.4741C48.3733 49.3311 47.4406 49.8701 46.4316 49.9794L46.0526 50H3.94737C2.93364 49.9994 1.95896 49.563 1.2253 48.7811C0.491636 47.9993 0.0552315 46.9319 0.0065151 45.8002C-0.0422013 44.6686 0.300505 43.5593 0.96362 42.7023C1.62673 41.8454 2.55942 41.3064 3.56842 41.1971L3.94737 41.1765H46.0526ZM46.0526 20.5882C47.0995 20.5882 48.1036 21.053 48.8438 21.8804C49.5841 22.7078 50 23.8299 50 25C50 26.1701 49.5841 27.2922 48.8438 28.1196C48.1036 28.947 47.0995 29.4118 46.0526 29.4118H3.94737C2.90046 29.4118 1.89643 28.947 1.15616 28.1196C0.415882 27.2922 0 26.1701 0 25C0 23.8299 0.415882 22.7078 1.15616 21.8804C1.89643 21.053 2.90046 20.5882 3.94737 20.5882H25H46.0526ZM46.0526 0C47.0995 0 48.1036 0.46481 48.8438 1.29218C49.5841 2.11954 50 3.24169 50 4.41176C50 5.58184 49.5841 6.70399 48.8438 7.53135C48.1036 8.35872 47.0995 8.82353 46.0526 8.82353H3.94737C2.90046 8.82353 1.89643 8.35872 1.15616 7.53135C0.415882 6.70399 0 5.58184 0 4.41176C0 3.24169 0.415882 2.11954 1.15616 1.29218C1.89643 0.46481 2.90046 0 3.94737 0H46.0526Z" fill="#CECECE"/>
</svg>
